<?xml version="1.0" encoding="utf-8"?>
<!-- Generator: Adobe Illustrator 16.0.4, SVG Export Plug-In . SVG Version: 6.00 Build 0)  -->
<!DOCTYPE svg PUBLIC "-//W3C//DTD SVG 1.1//EN" "http://www.w3.org/Graphics/SVG/1.1/DTD/svg11.dtd">
<svg version="1.1" id="Layer_1" xmlns="http://www.w3.org/2000/svg" xmlns:xlink="http://www.w3.org/1999/xlink" x="0px" y="0px"
	 width="295.275px" height="99.213px" viewBox="0 0 295.275 99.213" enable-background="new 0 0 295.275 99.213"
	 xml:space="preserve">
<g>
	<path fill="#FFFFFF" d="M168.285,83.665c-12.254,2.799-26.069,5.01-40.836,6.373C72.653,95.122,27.043,90.097,23.751,74.929
		c-2.047-9.449,13.331-22.774,37.816-30.202h-4.415c-27.555,8.22-46.498,22.282-46.958,32.136
		C9.43,93.321,54.329,98.122,117.068,92.437c18.779-1.705,36.683-4.535,52.627-8.113L168.285,83.665z"/>
	<g>
		<g>
			<path fill="#FFFFFF" d="M87.047,44.725c-4.041,4.061-9.135,8.01-15.951,8.01l-4.061,5.79l8.073-0.008l-5.897,8.393h-8.065
				l-6.196,8.797H43.555l21.768-30.979L87.047,44.725z"/>
			<g>
				<g>
					<polygon fill="#FFFFFF" points="87.481,73.456 102.397,74.448 102.342,74.528 82.897,75.706 89.231,66.694 107.055,67.794 
						107,67.874 90.674,68.938 90.604,69.019 105.504,70.009 105.45,70.089 89.102,71.157 89.055,71.237 103.942,72.226 
						103.881,72.31 87.538,73.38 					"/>
				</g>
				<g>
					<polygon fill="#FFFFFF" points="122.487,45.847 97.668,46.967 97.616,47.042 120.997,47.966 120.944,48.042 96.125,49.16 
						96.071,49.239 119.456,50.162 119.399,50.241 94.573,51.37 94.52,51.445 117.903,52.371 117.846,52.451 93.032,53.565 
						92.975,53.643 116.358,54.571 116.303,54.645 91.481,55.774 91.428,55.849 114.803,56.776 114.756,56.847 89.934,57.976 
						89.887,58.042 113.252,58.981 113.208,59.05 88.377,60.171 88.346,60.249 111.717,61.173 111.665,61.249 86.846,62.366 
						86.79,62.446 110.161,63.39 110.108,63.466 85.301,64.567 85.247,64.646 108.618,65.579 108.561,65.659 80.59,66.915 
						96.182,44.725 122.54,45.769 					"/>
				</g>
			</g>
			<g>
				<path fill="#FFFFFF" d="M78.379,82.134h1.1l-0.922,1.312h-3.865l0.934-1.312h0.992l1.225-1.752h-1.195l0.797-1.107
					c0.934,0,1.449-0.348,2.1-0.99h1.541L78.379,82.134z"/>
				<g>
					<path fill="#FFFFFF" d="M66.102,83.446h-1.658l3.63-5.162h1.656L66.102,83.446z"/>
					<path fill="#FFFFFF" d="M61.911,81.954c-0.264,0.377,0.294,0.66,0.715,0.059c0.13-0.189,1.567-2.24,1.567-2.24h1.652
						c0,0-1.401,1.992-1.776,2.52c-0.901,1.268-2.035,1.26-2.629,1.26c-1.005,0-1.831-0.699-1.056-1.818
						c0.302-0.439,1.392-1.961,1.392-1.961h1.666C63.442,79.772,62.054,81.751,61.911,81.954z"/>
					<path fill="#FFFFFF" d="M42.627,79.616l-0.564,0.803h1.495l-0.954,1.363h-1.492l-1.168,1.664h-1.828l3.63-5.162h3.427
						C44.28,79.358,43.777,79.616,42.627,79.616z"/>
					<path fill="#FFFFFF" d="M47.944,81.638c-0.52,0.971-1.692,1.914-3.098,1.914c-1.45,0-1.548-1.211-0.821-2.273
						c0.679-1,1.832-1.65,2.863-1.65C48.213,79.628,48.575,80.46,47.944,81.638z M46.467,80.726
						c-0.658-0.178-1.915,1.562-1.164,1.654C45.958,82.456,47.192,80.917,46.467,80.726z"/>
					<path fill="#FFFFFF" d="M51.484,80.302c1.66-1.193,2.069-0.246,2.069-0.246l-1.273,1.273c-0.544-0.713-1.402-0.168-1.729,0.297
						c-0.132,0.186-1.284,1.82-1.284,1.82H47.62l2.573-3.674h1.64L51.484,80.302z"/>
					<path fill="#FFFFFF" d="M57.966,80.247c1.363-1.057,2.836-0.395,1.99,0.822c-0.196,0.283-1.671,2.377-1.671,2.377h-1.613
						c0,0,1.433-2.033,1.562-2.219c0.271-0.387-0.396-0.496-0.745,0c-0.138,0.197-1.558,2.219-1.558,2.219h-1.616
						c0,0,1.422-2.033,1.552-2.219c0.271-0.387-0.392-0.496-0.739,0c-0.138,0.197-1.562,2.219-1.562,2.219h-1.606l2.569-3.668h1.638
						l-0.395,0.561C56.561,79.751,57.693,79.364,57.966,80.247z"/>
					<path fill="#FFFFFF" d="M70.074,82.397c-0.373-0.041-0.391-0.418-0.058-0.891c0.302-0.434,0.89-0.85,1.222-0.764
						C71.963,80.937,70.729,82.466,70.074,82.397z M71.456,79.673c-1.443,0-2.618,1.057-3.075,2.078
						c-0.456,1.014-0.148,1.801,0.749,1.801c0.565,0,1.062-0.348,1.236-0.465l-0.262,0.371h1.48l2.574-3.668h-1.68l-0.229,0.293
						C72.182,79.896,71.918,79.673,71.456,79.673z"/>
				</g>
			</g>
		</g>
		<g>
			<path fill="#FFFFFF" d="M83.172,79.661c-0.156,0.152-0.344,0.227-0.562,0.227c-0.225,0-0.416-0.076-0.57-0.23
				c-0.154-0.156-0.232-0.346-0.232-0.57c0-0.234,0.084-0.43,0.252-0.586c0.156-0.145,0.34-0.217,0.551-0.217
				c0.223,0,0.41,0.078,0.568,0.234c0.156,0.156,0.234,0.346,0.234,0.568C83.413,79.313,83.333,79.507,83.172,79.661z M82.141,78.62
				c-0.127,0.131-0.191,0.287-0.191,0.465c0,0.186,0.064,0.344,0.195,0.475c0.127,0.129,0.283,0.195,0.467,0.195
				c0.182,0,0.336-0.066,0.465-0.197s0.193-0.289,0.193-0.473c0-0.178-0.062-0.332-0.191-0.465s-0.285-0.199-0.467-0.199
				C82.428,78.421,82.27,78.487,82.141,78.62z M82.258,79.53v-0.889c0.055,0,0.137,0,0.248,0c0.109,0.002,0.17,0.002,0.182,0.002
				c0.07,0.006,0.129,0.021,0.176,0.047c0.078,0.043,0.119,0.113,0.119,0.211c0,0.074-0.021,0.127-0.062,0.16
				c-0.043,0.033-0.094,0.053-0.154,0.059c0.055,0.012,0.098,0.029,0.125,0.053c0.053,0.041,0.078,0.109,0.078,0.199v0.08
				c0,0.008,0.002,0.018,0.002,0.027c0.002,0.008,0.004,0.016,0.008,0.025l0.008,0.025h-0.223c-0.008-0.029-0.012-0.07-0.014-0.123
				c-0.004-0.055-0.008-0.092-0.016-0.109c-0.012-0.031-0.033-0.055-0.064-0.066c-0.018-0.008-0.043-0.012-0.078-0.014l-0.051-0.004
				h-0.049v0.316H82.258z M82.682,78.813c-0.031-0.012-0.076-0.018-0.135-0.018h-0.055v0.26h0.09c0.053,0,0.096-0.012,0.125-0.033
				c0.031-0.021,0.047-0.059,0.047-0.105C82.754,78.866,82.729,78.833,82.682,78.813z"/>
		</g>
	</g>
</g>
<g>
	<g>
		<path fill="#FFFFFF" d="M141.136,48.475c-0.396,2.502-2.468,4.266-4.949,4.266s-3.998-1.764-3.603-4.266
			c0.368-2.338,2.678-3.979,4.903-3.979C139.712,44.496,141.504,46.137,141.136,48.475z M134.674,48.485
			c-0.21,1.333,0.62,2.307,1.82,2.307c1.199,0,2.338-0.974,2.548-2.307c0.168-1.066-0.662-2.041-1.862-2.041
			C135.98,46.444,134.842,47.418,134.674,48.485z"/>
		<path fill="#FFFFFF" d="M144.394,46.455l-0.204,1.292h2.205l-0.269,1.702h-2.205l-0.479,3.035h-2.01l1.22-7.731h4.439
			l-0.269,1.702H144.394z"/>
		<path fill="#FFFFFF" d="M149.949,46.455l-0.204,1.292h2.205l-0.269,1.702h-2.205l-0.479,3.035h-2.01l1.22-7.731h4.439
			l-0.269,1.702H149.949z"/>
		<path fill="#FFFFFF" d="M154.554,52.484h-2.01l1.22-7.731h2.01L154.554,52.484z"/>
		<path fill="#FFFFFF" d="M162.202,47.347c-0.322-0.554-0.942-0.851-1.629-0.851c-1.23,0-2.21,0.943-2.399,2.144
			c-0.192,1.22,0.51,2.102,1.761,2.102c0.656,0,1.362-0.318,1.862-0.82l-0.381,2.41c-0.698,0.205-1.205,0.358-1.83,0.358
			c-1.077,0-2.037-0.41-2.723-1.138c-0.729-0.77-0.961-1.774-0.779-2.923c0.166-1.056,0.727-2.071,1.584-2.83
			c0.882-0.779,2.054-1.251,3.141-1.251c0.646,0,1.218,0.144,1.773,0.39L162.202,47.347z"/>
		<path fill="#FFFFFF" d="M164.64,52.484h-2.01l1.22-7.731h2.01L164.64,52.484z"/>
		<path fill="#FFFFFF" d="M168.132,51.141l-0.745,1.343h-2.133l4.193-7.731h2.194l1.692,7.731h-2.143l-0.291-1.343H168.132z
			 M170.167,47.142h-0.021l-1.219,2.46h1.672L170.167,47.142z"/>
		<path fill="#FFFFFF" d="M176.234,50.782h2.409l-0.269,1.702h-4.419l1.22-7.731h2.01L176.234,50.782z"/>
		<path fill="#FFFFFF" d="M185.602,49.747h0.021l2.408-4.994h1.6l0.729,4.994h0.021l2.244-4.994h2.092l-3.69,7.731h-2.051
			l-0.647-4.481h-0.021l-2.225,4.481h-2.04l-1.088-7.731h2.092L185.602,49.747z"/>
		<path fill="#FFFFFF" d="M196.955,46.455l-0.204,1.292h2.267l-0.269,1.702h-2.267l-0.21,1.333h2.389l-0.269,1.702h-4.398
			l1.22-7.731h4.398l-0.269,1.702H196.955z"/>
		<path fill="#FFFFFF" d="M199.632,52.484l1.22-7.731h2.871c1.374,0,2.213,0.533,1.979,2.01c-0.109,0.697-0.425,1.262-1.1,1.579
			l-0.004,0.021c1.085,0.144,1.438,0.893,1.269,1.969c-0.255,1.62-1.724,2.153-3.139,2.153H199.632z M201.884,50.946h0.257
			c0.595,0,1.595,0.031,1.729-0.82c0.147-0.934-0.861-0.841-1.518-0.841h-0.205L201.884,50.946z M202.383,47.788h0.226
			c0.533,0,1.101-0.092,1.204-0.749c0.112-0.708-0.507-0.749-1.051-0.749h-0.144L202.383,47.788z"/>
		<path fill="#FFFFFF" d="M215.747,47.737l0.471-2.984h2.01l-1.22,7.731h-2.01l0.5-3.169h-2.901l-0.5,3.169h-2.01l1.22-7.731h2.01
			l-0.471,2.984H215.747z"/>
		<path fill="#FFFFFF" d="M227.112,48.475c-0.396,2.502-2.468,4.266-4.949,4.266s-3.998-1.764-3.603-4.266
			c0.368-2.338,2.678-3.979,4.903-3.979C225.688,44.496,227.48,46.137,227.112,48.475z M220.65,48.485
			c-0.21,1.333,0.62,2.307,1.82,2.307c1.199,0,2.338-0.974,2.548-2.307c0.168-1.066-0.662-2.041-1.862-2.041
			C221.957,46.444,220.818,47.418,220.65,48.485z"/>
		<path fill="#FFFFFF" d="M232.561,46.742c-0.321-0.308-0.761-0.513-1.253-0.513c-0.369,0-0.895,0.215-0.963,0.646
			c-0.071,0.451,0.444,0.625,0.775,0.738l0.488,0.154c1.027,0.317,1.771,0.861,1.574,2.112c-0.121,0.77-0.431,1.559-1.128,2.082
			c-0.686,0.512-1.53,0.728-2.31,0.728c-0.974,0-1.876-0.328-2.578-0.882l1.117-1.62c0.433,0.44,0.971,0.8,1.658,0.8
			c0.472,0,1.011-0.236,1.097-0.779c0.089-0.564-0.67-0.759-1.081-0.882c-1.204-0.358-1.983-0.687-1.747-2.184
			c0.247-1.569,1.526-2.594,3.075-2.594c0.779,0,1.694,0.246,2.319,0.636L232.561,46.742z"/>
		<path fill="#FFFFFF" d="M236.799,52.484h-2.01l0.951-6.029h-1.661l0.269-1.702h5.332l-0.269,1.702h-1.661L236.799,52.484z"/>
		<path fill="#FFFFFF" d="M241.195,52.484h-2.01l1.22-7.731h2.01L241.195,52.484z"/>
		<path fill="#FFFFFF" d="M243.727,44.752h2.01l2.936,4.727h0.021l0.745-4.727h2.01l-1.219,7.731h-2.01l-2.935-4.737h-0.021
			l-0.747,4.737h-2.01L243.727,44.752z"/>
		<path fill="#FFFFFF" d="M259.929,48.167c-0.198,1.129-0.433,2.092-1.271,3.057c-0.925,1.056-2.136,1.518-3.428,1.518
			c-2.431,0-3.862-1.651-3.479-4.082c0.396-2.512,2.358-4.163,4.851-4.163c1.589,0,2.706,0.718,3.145,2.164l-2.033,0.8
			c-0.16-0.738-0.667-1.23-1.478-1.23c-1.322,0-2.208,1.261-2.395,2.44c-0.189,1.2,0.336,2.42,1.659,2.42
			c0.871,0,1.609-0.451,1.832-1.343h-1.641l0.249-1.58H259.929z"/>
		<path fill="#FFFFFF" d="M265.864,51.141l-0.745,1.343h-2.133l4.193-7.731h2.194l1.692,7.731h-2.143l-0.291-1.343H265.864z
			 M267.899,47.142h-0.021l-1.219,2.46h1.672L267.899,47.142z"/>
		<path fill="#FFFFFF" d="M272.908,44.752h2.01l2.936,4.727h0.021l0.745-4.727h2.01l-1.219,7.731h-2.01l-2.935-4.737h-0.021
			l-0.747,4.737h-2.01L272.908,44.752z"/>
		<path fill="#FFFFFF" d="M281.938,44.752h2.851c2.153,0,3.66,1.692,3.317,3.865c-0.343,2.174-2.394,3.866-4.537,3.866h-2.851
			L281.938,44.752z M282.997,50.782h0.451c1.199,0,2.328-0.656,2.566-2.164c0.218-1.384-0.571-2.163-1.863-2.163h-0.472
			L282.997,50.782z"/>
	</g>
	<g>
		<path fill="#FFFFFF" d="M130.456,58.964c-0.322-0.553-0.942-0.852-1.629-0.852c-1.23,0-2.21,0.943-2.399,2.145
			c-0.192,1.219,0.51,2.102,1.761,2.102c0.656,0,1.362-0.318,1.862-0.82l-0.381,2.41c-0.698,0.205-1.205,0.357-1.83,0.357
			c-1.077,0-2.037-0.41-2.723-1.137c-0.729-0.77-0.961-1.775-0.779-2.924c0.166-1.055,0.727-2.07,1.584-2.83
			c0.882-0.779,2.054-1.25,3.141-1.25c0.646,0,1.218,0.143,1.773,0.389L130.456,58.964z"/>
		<path fill="#FFFFFF" d="M139.679,60.093c-0.396,2.502-2.468,4.266-4.949,4.266s-3.998-1.764-3.603-4.266
			c0.368-2.338,2.678-3.979,4.903-3.979C138.255,56.114,140.047,57.755,139.679,60.093z M133.217,60.103
			c-0.21,1.332,0.62,2.307,1.82,2.307c1.199,0,2.338-0.975,2.548-2.307c0.168-1.066-0.662-2.041-1.862-2.041
			C134.523,58.062,133.385,59.036,133.217,60.103z"/>
		<path fill="#FFFFFF" d="M141.195,56.37h2.01l2.936,4.727h0.021l0.745-4.727h2.01l-1.219,7.73h-2.01l-2.935-4.736h-0.021
			l-0.747,4.736h-2.01L141.195,56.37z"/>
		<path fill="#FFFFFF" d="M152.082,64.101h-2.01l0.951-6.029h-1.661l0.269-1.701h5.332l-0.269,1.701h-1.661L152.082,64.101z"/>
		<path fill="#FFFFFF" d="M157.43,58.071l-0.204,1.293h2.267l-0.269,1.701h-2.267l-0.21,1.334h2.389l-0.269,1.701h-4.398l1.22-7.73
			h4.398l-0.269,1.701H157.43z"/>
		<path fill="#FFFFFF" d="M161.326,56.37h2.01l2.936,4.727h0.021l0.745-4.727h2.01l-1.219,7.73h-2.01l-2.935-4.736h-0.021
			l-0.747,4.736h-2.01L161.326,56.37z"/>
		<path fill="#FFFFFF" d="M172.213,64.101h-2.01l0.951-6.029h-1.661l0.269-1.701h5.332l-0.269,1.701h-1.661L172.213,64.101z"/>
		<path fill="#FFFFFF" d="M179.335,56.37h2.851c2.153,0,3.66,1.691,3.317,3.865s-2.394,3.865-4.537,3.865h-2.851L179.335,56.37z
			 M180.394,62.399h0.451c1.199,0,2.328-0.656,2.566-2.164c0.218-1.385-0.571-2.164-1.863-2.164h-0.472L180.394,62.399z"/>
		<path fill="#FFFFFF" d="M188.784,58.071l-0.204,1.293h2.267l-0.269,1.701h-2.267l-0.21,1.334h2.389l-0.268,1.701h-4.399l1.22-7.73
			h4.398l-0.269,1.701H188.784z"/>
		<path fill="#FFFFFF" d="M193.739,62.399h2.409l-0.268,1.701h-4.42l1.22-7.73h2.01L193.739,62.399z"/>
		<path fill="#FFFFFF" d="M198.544,64.101h-2.01l1.22-7.73h2.01L198.544,64.101z"/>
		<path fill="#FFFFFF" d="M203.574,61.065l2.617-4.695h2.185l-4.521,7.73h-1.559l-2.031-7.73h2.185L203.574,61.065z"/>
		<path fill="#FFFFFF" d="M210.616,58.071l-0.204,1.293h2.267l-0.269,1.701h-2.267l-0.21,1.334h2.389l-0.268,1.701h-4.399l1.22-7.73
			h4.398l-0.269,1.701H210.616z"/>
		<path fill="#FFFFFF" d="M219.723,64.101h-2.502l-1.429-2.973h-0.021l-0.469,2.973h-2.01l1.22-7.73h3.004
			c1.528,0,2.572,0.729,2.312,2.379c-0.168,1.066-0.908,1.988-2.036,2.184L219.723,64.101z M215.976,59.835h0.194
			c0.656,0,1.414-0.123,1.547-0.963c0.133-0.842-0.586-0.965-1.242-0.965h-0.195L215.976,59.835z"/>
		<path fill="#FFFFFF" d="M220.223,56.37h2.41l1.114,2.102l1.777-2.102h2.409l-3.484,4.02l-0.586,3.711h-2.01l0.586-3.711
			L220.223,56.37z"/>
		<path fill="#FFFFFF" d="M231.908,56.37h2.01l2.936,4.727h0.021l0.745-4.727h2.01l-1.219,7.73h-2.01l-2.935-4.736h-0.021
			l-0.747,4.736h-2.01L231.908,56.37z"/>
		<path fill="#FFFFFF" d="M242.68,58.071l-0.204,1.293h2.267l-0.269,1.701h-2.267l-0.21,1.334h2.389l-0.269,1.701h-4.398l1.22-7.73
			h4.398l-0.269,1.701H242.68z"/>
		<path fill="#FFFFFF" d="M248.433,64.101h-2.01l0.951-6.029h-1.661l0.269-1.701h5.332l-0.269,1.701h-1.661L248.433,64.101z"/>
		<path fill="#FFFFFF" d="M253.876,61.364h0.021l2.408-4.994h1.6l0.729,4.994h0.021l2.244-4.994h2.092l-3.691,7.73h-2.051
			l-0.646-4.48h-0.021l-2.224,4.48h-2.041l-1.088-7.73h2.092L253.876,61.364z"/>
		<path fill="#FFFFFF" d="M271.063,60.093c-0.396,2.502-2.468,4.266-4.949,4.266s-3.998-1.764-3.603-4.266
			c0.368-2.338,2.678-3.979,4.903-3.979C269.64,56.114,271.432,57.755,271.063,60.093z M264.602,60.103
			c-0.21,1.332,0.62,2.307,1.82,2.307c1.199,0,2.338-0.975,2.548-2.307c0.168-1.066-0.662-2.041-1.862-2.041
			C265.908,58.062,264.77,59.036,264.602,60.103z"/>
		<path fill="#FFFFFF" d="M277.789,64.101h-2.502l-1.428-2.973h-0.021l-0.469,2.973h-2.01l1.22-7.73h3.004
			c1.528,0,2.572,0.729,2.312,2.379c-0.168,1.066-0.908,1.988-2.036,2.184L277.789,64.101z M274.043,59.835h0.195
			c0.656,0,1.413-0.123,1.546-0.963c0.133-0.842-0.586-0.965-1.242-0.965h-0.195L274.043,59.835z"/>
		<path fill="#FFFFFF" d="M284.01,56.37h2.492l-3.653,3.66l2.71,4.07h-2.604l-2.065-3.352h-0.021l-0.529,3.352h-2.01l1.22-7.73h2.01
			l-0.503,3.189h0.021L284.01,56.37z"/>
	</g>
	<g>
		<path fill="#FFFFFF" d="M118.322,67.987h3.076c1.661,0,2.688,0.77,2.408,2.543c-0.288,1.826-1.398,2.625-3.151,2.625h-1.139
			l-0.404,2.564h-2.01L118.322,67.987z M119.772,71.536h0.338c0.729,0,1.446,0,1.595-0.943c0.153-0.975-0.511-0.984-1.29-0.984
			h-0.339L119.772,71.536z"/>
		<path fill="#FFFFFF" d="M130.307,75.72h-2.502l-1.428-2.975h-0.021l-0.469,2.975h-2.01l1.22-7.732h3.004
			c1.528,0,2.572,0.729,2.312,2.379c-0.168,1.066-0.908,1.99-2.036,2.186L130.307,75.72z M126.561,71.454h0.195
			c0.656,0,1.413-0.123,1.546-0.965c0.133-0.84-0.586-0.963-1.242-0.963h-0.195L126.561,71.454z"/>
		<path fill="#FFFFFF" d="M139.643,71.71c-0.396,2.502-2.468,4.266-4.949,4.266s-3.998-1.764-3.603-4.266
			c0.368-2.338,2.678-3.979,4.903-3.979C138.219,67.731,140.011,69.372,139.643,71.71z M133.181,71.72
			c-0.21,1.334,0.62,2.309,1.82,2.309c1.199,0,2.338-0.975,2.548-2.309c0.168-1.066-0.662-2.039-1.862-2.039
			C134.487,69.681,133.349,70.653,133.181,71.72z"/>
		<path fill="#FFFFFF" d="M143.658,72.685l2.617-4.697h2.185l-4.521,7.732h-1.559l-2.031-7.732h2.185L143.658,72.685z"/>
		<path fill="#FFFFFF" d="M149.749,75.72h-2.01l1.22-7.732h2.01L149.749,75.72z"/>
		<path fill="#FFFFFF" d="M152.28,67.987h2.851c2.153,0,3.66,1.693,3.317,3.867s-2.394,3.865-4.537,3.865h-2.851L152.28,67.987z
			 M153.339,74.017h0.451c1.199,0,2.328-0.656,2.566-2.162c0.218-1.385-0.571-2.164-1.863-2.164h-0.472L153.339,74.017z"/>
		<path fill="#FFFFFF" d="M161.729,69.69l-0.204,1.291h2.267l-0.269,1.703h-2.267l-0.21,1.332h2.389l-0.268,1.703h-4.399l1.22-7.732
			h4.398l-0.269,1.703H161.729z"/>
		<path fill="#FFFFFF" d="M170.836,75.72h-2.502l-1.429-2.975h-0.021l-0.469,2.975h-2.01l1.22-7.732h3.004
			c1.528,0,2.572,0.729,2.312,2.379c-0.168,1.066-0.908,1.99-2.036,2.186L170.836,75.72z M167.089,71.454h0.194
			c0.656,0,1.414-0.123,1.547-0.965c0.133-0.84-0.586-0.963-1.242-0.963h-0.195L167.089,71.454z"/>
		<path fill="#FFFFFF" d="M183.687,71.71c-0.396,2.502-2.468,4.266-4.949,4.266s-3.998-1.764-3.603-4.266
			c0.368-2.338,2.678-3.979,4.903-3.979C182.263,67.731,184.055,69.372,183.687,71.71z M177.225,71.72
			c-0.21,1.334,0.62,2.309,1.82,2.309c1.199,0,2.338-0.975,2.548-2.309c0.168-1.066-0.662-2.039-1.862-2.039
			C178.531,69.681,177.393,70.653,177.225,71.72z"/>
		<path fill="#FFFFFF" d="M186.944,69.69l-0.204,1.291h2.205l-0.269,1.703h-2.205l-0.479,3.035h-2.01l1.22-7.732h4.439l-0.269,1.703
			H186.944z"/>
		<path fill="#FFFFFF" d="M196.016,69.69l-0.204,1.291h2.205l-0.269,1.703h-2.205l-0.479,3.035h-2.01l1.22-7.732h4.439l-0.269,1.703
			H196.016z"/>
		<path fill="#FFFFFF" d="M207.405,71.71c-0.396,2.502-2.468,4.266-4.949,4.266s-3.998-1.764-3.603-4.266
			c0.368-2.338,2.678-3.979,4.903-3.979C205.981,67.731,207.773,69.372,207.405,71.71z M200.943,71.72
			c-0.21,1.334,0.62,2.309,1.82,2.309c1.199,0,2.338-0.975,2.548-2.309c0.168-1.066-0.662-2.039-1.862-2.039
			C202.25,69.681,201.111,70.653,200.943,71.72z"/>
		<path fill="#FFFFFF" d="M214.131,75.72h-2.502l-1.428-2.975h-0.021l-0.469,2.975h-2.01l1.22-7.732h3.004
			c1.528,0,2.572,0.729,2.312,2.379c-0.168,1.066-0.908,1.99-2.036,2.186L214.131,75.72z M210.385,71.454h0.195
			c0.656,0,1.413-0.123,1.546-0.965c0.133-0.84-0.586-0.963-1.242-0.963h-0.195L210.385,71.454z"/>
		<path fill="#FFFFFF" d="M216.742,67.987h1.979l0.917,4.133l2.312-4.133h2L223.9,75.72h-2.01l0.138-4.451h-0.021l-2.558,4.451h-0.8
			l-1.072-4.451h-0.021l-1.348,4.451h-1.999L216.742,67.987z"/>
		<path fill="#FFFFFF" d="M232.673,67.987l-0.686,4.348c-0.157,0.996-0.354,1.98-1.241,2.729c-0.746,0.635-1.797,0.861-2.699,0.861
			s-1.882-0.227-2.428-0.861c-0.65-0.748-0.536-1.732-0.379-2.729l0.686-4.348h2.01l-0.643,4.072
			c-0.158,1.004-0.26,2.102,1.032,2.102s1.537-1.098,1.695-2.102l0.643-4.072H232.673z"/>
		<path fill="#FFFFFF" d="M235,74.017h2.409l-0.269,1.703h-4.419l1.22-7.732h2.01L235,74.017z"/>
		<path fill="#FFFFFF" d="M239.976,74.376l-0.745,1.344h-2.133l4.193-7.732h2.194l1.692,7.732h-2.143l-0.291-1.344H239.976z
			 M242.011,70.378h-0.021l-1.219,2.461h1.672L242.011,70.378z"/>
		<path fill="#FFFFFF" d="M247.745,69.69l0.269-1.703h3.117l-1.219,7.732h-2.01l0.95-6.029H247.745z"/>
		<path fill="#FFFFFF" d="M255.295,74.726c-0.104,0.656-0.723,1.199-1.389,1.199c-0.667,0-1.114-0.543-1.011-1.199
			c0.105-0.668,0.723-1.201,1.389-1.201C254.951,73.524,255.4,74.058,255.295,74.726z"/>
		<path fill="#FFFFFF" d="M262.684,70.583c-0.322-0.555-0.942-0.852-1.629-0.852c-1.23,0-2.21,0.943-2.399,2.143
			c-0.192,1.221,0.51,2.102,1.761,2.102c0.656,0,1.362-0.316,1.862-0.82l-0.381,2.41c-0.698,0.205-1.205,0.359-1.83,0.359
			c-1.077,0-2.037-0.41-2.723-1.139c-0.729-0.77-0.961-1.773-0.779-2.922c0.166-1.057,0.727-2.072,1.584-2.83
			c0.882-0.779,2.054-1.252,3.141-1.252c0.646,0,1.218,0.145,1.774,0.391L262.684,70.583z"/>
		<path fill="#FFFFFF" d="M271.906,71.71c-0.396,2.502-2.468,4.266-4.949,4.266s-3.998-1.764-3.603-4.266
			c0.368-2.338,2.678-3.979,4.903-3.979C270.482,67.731,272.274,69.372,271.906,71.71z M265.444,71.72
			c-0.21,1.334,0.62,2.309,1.82,2.309c1.199,0,2.338-0.975,2.548-2.309c0.168-1.066-0.662-2.039-1.862-2.039
			C266.751,69.681,265.612,70.653,265.444,71.72z"/>
		<path fill="#FFFFFF" d="M274.273,67.987h1.979l0.917,4.133l2.312-4.133h2l-0.051,7.732h-2.01l0.138-4.451h-0.021l-2.558,4.451
			h-0.8l-1.072-4.451h-0.021l-1.348,4.451h-1.999L274.273,67.987z"/>
	</g>
</g>
<g>
	<g>
		<g>
			<path fill="#FFFFFF" d="M98.433,28.371c-0.705,0.371-2.274,0.762-4.251,0.762c-5.227,0-8.399-3.293-8.399-8.304
				c0-5.425,3.762-8.688,8.792-8.688c1.985,0,3.401,0.416,4.006,0.727l-0.657,2.396c-0.776-0.34-1.857-0.633-3.22-0.633
				c-3.351,0-5.769,2.098-5.769,6.051c0,3.616,2.129,5.935,5.742,5.935c1.218,0,2.487-0.244,3.271-0.608L98.433,28.371z"/>
			<path fill="#FFFFFF" d="M114.959,20.464c0,5.515-3.339,8.669-7.883,8.669c-4.637,0-7.571-3.543-7.571-8.378
				c0-5.053,3.179-8.614,7.816-8.614C112.138,12.141,114.959,15.775,114.959,20.464z M102.685,20.713
				c0,3.34,1.683,6.026,4.559,6.026c2.903,0,4.546-2.706,4.546-6.155c0-3.1-1.537-6.051-4.546-6.051
				C104.273,14.533,102.685,17.318,102.685,20.713z"/>
			<path fill="#FFFFFF" d="M131.446,22.146c-0.092-2.121-0.222-4.684-0.193-6.932h-0.07c-0.54,2.025-1.22,4.245-1.957,6.323
				l-2.391,7.13h-2.319l-2.199-7.039c-0.634-2.088-1.226-4.339-1.659-6.414h-0.046c-0.085,2.169-0.177,4.783-0.299,7.033
				l-0.37,6.611h-2.81l1.098-16.452h3.959l2.153,6.614c0.583,1.935,1.092,3.886,1.517,5.716h0.065
				c0.444-1.782,1.001-3.804,1.638-5.744l2.275-6.586h3.899l0.962,16.452h-2.939L131.446,22.146z"/>
			<path fill="#FFFFFF" d="M151.646,22.146c-0.104-2.121-0.227-4.684-0.202-6.932h-0.069c-0.538,2.025-1.222,4.245-1.956,6.323
				l-2.398,7.13h-2.316l-2.195-7.039c-0.639-2.088-1.225-4.339-1.659-6.414h-0.049c-0.079,2.169-0.171,4.783-0.296,7.033
				l-0.359,6.611h-2.812l1.098-16.452h3.957l2.146,6.614c0.588,1.935,1.104,3.886,1.518,5.716h0.068
				c0.438-1.782,0.998-3.804,1.643-5.744l2.264-6.586h3.907l0.958,16.452h-2.932L151.646,22.146z"/>
			<path fill="#FFFFFF" d="M160.913,12.406V22c0,3.227,1.348,4.716,3.375,4.716c2.177,0,3.464-1.489,3.464-4.716v-9.594h3.005v9.396
				c0,5.082-2.611,7.33-6.567,7.33c-3.808,0-6.271-2.127-6.271-7.303v-9.424H160.913z"/>
			<path fill="#FFFFFF" d="M174.205,28.858V12.406h3.412l4.252,7.053c1.093,1.83,2.048,3.735,2.808,5.52h0.047
				c-0.203-2.195-0.265-4.319-0.265-6.839v-5.733h2.78v16.452h-3.104l-4.29-7.245c-1.055-1.786-2.158-3.81-2.966-5.667l-0.064,0.025
				c0.121,2.129,0.144,4.297,0.144,7.009v5.878H174.205z"/>
			<path fill="#FFFFFF" d="M193.705,12.406v16.452h-3.002V12.406H193.705z"/>
			<path fill="#FFFFFF" d="M208.952,28.371c-0.709,0.371-2.279,0.762-4.261,0.762c-5.219,0-8.396-3.293-8.396-8.304
				c0-5.425,3.765-8.688,8.789-8.688c1.979,0,3.399,0.416,4.003,0.727l-0.654,2.396c-0.781-0.34-1.855-0.633-3.223-0.633
				c-3.343,0-5.762,2.098-5.762,6.051c0,3.616,2.124,5.935,5.741,5.935c1.213,0,2.488-0.244,3.261-0.608L208.952,28.371z"/>
			<path fill="#FFFFFF" d="M214.979,24.198l-1.413,4.66h-3.113l5.283-16.452h3.826l5.354,16.452h-3.225l-1.493-4.66H214.979z
				 M219.686,21.932l-1.294-4.059c-0.319-1.004-0.59-2.123-0.832-3.075h-0.045c-0.252,0.952-0.487,2.101-0.778,3.075l-1.274,4.059
				H219.686z"/>
			<path fill="#FFFFFF" d="M228.377,14.924h-4.69v-2.518h12.44v2.518h-4.746v13.935h-3.004V14.924z"/>
			<path fill="#FFFFFF" d="M241.047,12.406v16.452h-2.993V12.406H241.047z"/>
			<path fill="#FFFFFF" d="M259.099,20.464c0,5.515-3.348,8.669-7.896,8.669c-4.636,0-7.563-3.543-7.563-8.378
				c0-5.053,3.174-8.614,7.822-8.614C256.263,12.141,259.099,15.775,259.099,20.464z M246.813,20.713
				c0,3.34,1.684,6.026,4.567,6.026c2.905,0,4.543-2.706,4.543-6.155c0-3.1-1.541-6.051-4.543-6.051
				C248.404,14.533,246.813,17.318,246.813,20.713z"/>
			<path fill="#FFFFFF" d="M261.686,28.858V12.406h3.415l4.246,7.053c1.102,1.83,2.053,3.735,2.812,5.52h0.046
				c-0.193-2.195-0.268-4.319-0.268-6.839v-5.733h2.783v16.452h-3.104l-4.297-7.245c-1.05-1.786-2.144-3.81-2.947-5.667
				l-0.073,0.025c0.118,2.129,0.146,4.297,0.146,7.009v5.878H261.686z"/>
			<path fill="#FFFFFF" d="M278.111,25.59c0.979,0.565,2.446,1.047,3.981,1.047c1.929,0,3.006-0.907,3.006-2.248
				c0-1.238-0.826-1.971-2.938-2.73c-2.71-0.977-4.444-2.414-4.444-4.789c0-2.68,2.256-4.729,5.813-4.729
				c1.787,0,3.109,0.384,3.955,0.825l-0.72,2.418c-0.594-0.321-1.734-0.778-3.275-0.778c-1.91,0-2.733,1.024-2.733,1.975
				c0,1.273,0.945,1.862,3.148,2.711c2.86,1.071,4.248,2.512,4.248,4.882c0,2.634-1.999,4.96-6.254,4.96
				c-1.739,0-3.529-0.515-4.446-1.05L278.111,25.59z"/>
		</g>
	</g>
	<polyline fill-rule="evenodd" clip-rule="evenodd" fill="#FFFFFF" points="14.877,28.798 14.877,17.135 10.183,17.135 
		10.183,12.299 26.161,12.299 26.161,17.135 21.599,17.135 21.599,28.798 14.877,28.798 	"/>
	<polyline fill-rule="evenodd" clip-rule="evenodd" fill="#FFFFFF" points="46.761,28.798 46.761,17.135 42.065,17.135 
		42.065,12.299 58.042,12.299 58.042,17.135 53.486,17.135 53.486,28.798 46.761,28.798 	"/>
	<polyline fill-rule="evenodd" clip-rule="evenodd" fill="#FFFFFF" points="24.637,28.816 30.677,12.318 37.553,12.312 
		43.967,28.816 37.495,28.816 34.152,18.836 30.825,28.816 24.637,28.816 	"/>
	<polyline fill-rule="evenodd" clip-rule="evenodd" fill="#FFFFFF" points="56.506,28.812 62.547,12.312 69.351,12.312 
		75.845,28.812 69.362,28.812 66.097,18.836 62.693,28.812 56.506,28.812 	"/>
</g>
</svg>
